# xmcd
#
# Track frame offsets:
#	150
#	19548
#	42830
#	57673
#	76637
#	98390
#	114295
#	135825
#	151338
#	170511
#	191469
#
# Disc length: 2807 seconds
#
# Revision: 0
# Processed by: cddbd v1.5.1PL0 Copyright (c) Steve Scherf et al.
# Submitted via: dBpowerAMP V4.0
#
DISCID=720af50b
DTITLE=Caitlin Cary - Begonnias
DYEAR=1900
DGENRE=
TTITLE0=Two Different Things
TTITLE1=Something Less Than Something More
TTITLE2=Second Option
TTITLE3=Please Break My Heart
TTITLE4=Whatever You Want
TTITLE5=Don't Make It Better
TTITLE6=Warm and Tender Love
TTITLE7=Party Time 
TTITLE8=Conversations About a Friend (Who's in Love With Katie)
TTITLE9=Waiting on June
TTITLE10=Big House
EXTD=
EXTT0=
EXTT1=
EXTT2=
EXTT3=
EXTT4=
EXTT5=
EXTT6=
EXTT7=
EXTT8=
EXTT9=
EXTT10=
PLAYORDER=
